<?xml version="1.0" encoding="utf-8"?>
<!-- Generator: Adobe Illustrator 15.0.0, SVG Export Plug-In . SVG Version: 6.00 Build 0)  -->
<!DOCTYPE svg PUBLIC "-//W3C//DTD SVG 1.1//EN" "http://www.w3.org/Graphics/SVG/1.1/DTD/svg11.dtd">
<svg version="1.1" id="Ebene_1" xmlns="http://www.w3.org/2000/svg" xmlns:xlink="http://www.w3.org/1999/xlink" x="0px" y="0px"
	 width="60px" height="60px" viewBox="0 0 60 60" enable-background="new 0 0 60 60" xml:space="preserve">
<g>
	<path fill="#FFFFFF" d="M11.557,28.832H6.515c-0.13,0-0.235,0.105-0.235,0.235v2.465c0,0.131,0.105,0.236,0.235,0.236h1.967v3.062
		c0,0-0.441,0.151-1.662,0.151c-1.441,0-3.453-0.527-3.453-4.952c0-4.426,2.095-5.008,4.062-5.008c1.703,0,2.437,0.3,2.903,0.444
		c0.147,0.045,0.282-0.102,0.282-0.231l0.562-2.382c0-0.062-0.021-0.135-0.09-0.184c-0.19-0.136-1.346-0.783-4.268-0.783
		C3.453,21.887,0,23.319,0,30.203c0,6.883,3.953,7.91,7.284,7.91c2.758,0,4.432-1.178,4.432-1.178
		c0.069-0.039,0.076-0.134,0.076-0.179v-7.688C11.792,28.938,11.688,28.832,11.557,28.832z"/>
	<path fill="#FFFFFF" d="M37.539,22.712c0-0.131-0.104-0.237-0.233-0.237h-2.839c-0.13,0-0.234,0.106-0.234,0.237
		c0,0.001,0,5.486,0,5.486h-4.425v-5.486c0-0.131-0.104-0.237-0.234-0.237h-2.838c-0.13,0-0.235,0.106-0.235,0.237v14.855
		c0,0.131,0.105,0.237,0.235,0.237h2.838c0.131,0,0.234-0.106,0.234-0.237v-6.354h4.425l-0.008,6.354
		c0,0.131,0.105,0.237,0.235,0.237h2.846c0.13,0,0.233-0.106,0.233-0.237V22.712z"/>
	<g>
		<g>
			<ellipse fill="#FFFFFF" cx="15.083" cy="24.661" rx="1.831" ry="1.849"/>
			<path fill="#FFFFFF" d="M16.71,34.434c0-0.381,0-6.857,0-6.857c0-0.13-0.104-0.237-0.234-0.237h-2.83
				c-0.13,0-0.245,0.135-0.245,0.266c0,0,0,8.251,0,9.824c0,0.288,0.18,0.374,0.413,0.374c0,0,1.207,0,2.549,0
				c0.28,0,0.348-0.138,0.348-0.379C16.71,36.897,16.71,34.834,16.71,34.434z"/>
		</g>
	</g>
	<path fill="#FFFFFF" d="M48.328,27.362h-2.817c-0.129,0-0.233,0.105-0.233,0.237v7.284c0,0-0.716,0.523-1.731,0.523
		s-1.285-0.461-1.285-1.455c0-0.996,0-6.353,0-6.353c0-0.132-0.105-0.237-0.234-0.237h-2.859c-0.129,0-0.235,0.105-0.235,0.237
		c0,0,0,3.879,0,6.833c0,2.955,1.647,3.676,3.912,3.676c1.858,0,3.356-1.026,3.356-1.026s0.071,0.541,0.104,0.605
		c0.032,0.063,0.116,0.128,0.208,0.128l1.818-0.008c0.13,0,0.235-0.106,0.235-0.237L48.564,27.6
		C48.564,27.468,48.458,27.362,48.328,27.362z"/>
	<path fill="#FFFFFF" d="M56.029,27.028c-1.601,0-2.688,0.714-2.688,0.714v-5.03c0-0.131-0.105-0.237-0.234-0.237h-2.848
		c-0.129,0-0.234,0.106-0.234,0.237v14.855c0,0.131,0.105,0.237,0.235,0.237c0,0,1.974,0,1.975,0c0.089,0,0.156-0.046,0.206-0.126
		c0.049-0.08,0.12-0.684,0.12-0.684s1.164,1.102,3.368,1.102c2.587,0,4.071-1.311,4.071-5.89S57.63,27.028,56.029,27.028z
		 M54.917,35.397c-0.977-0.029-1.64-0.473-1.64-0.473V30.22c0,0,0.654-0.399,1.456-0.472c1.015-0.092,1.992,0.216,1.992,2.636
		C56.726,34.936,56.284,35.439,54.917,35.397z"/>
	<path fill="#FFFFFF" d="M24.87,27.339h-2.13c0,0-0.003-2.813-0.003-2.814c0-0.106-0.055-0.159-0.178-0.159h-2.901
		c-0.114,0-0.174,0.05-0.174,0.158v2.907c0,0-1.455,0.351-1.553,0.379c-0.099,0.028-0.171,0.119-0.171,0.227v1.827
		c0,0.131,0.105,0.237,0.235,0.237h1.488c0,0,0,1.911,0,4.395c0,3.264,2.289,3.585,3.835,3.585c0.705,0,1.551-0.228,1.689-0.278
		c0.085-0.031,0.134-0.119,0.134-0.213l0.002-2.009c0-0.131-0.11-0.237-0.235-0.237c-0.124,0-0.441,0.051-0.769,0.051
		c-1.046,0-1.4-0.487-1.4-1.116s0-4.177,0-4.177h2.13c0.13,0,0.235-0.106,0.235-0.237v-2.288C25.105,27.443,25,27.339,24.87,27.339z
		"/>
</g>
</svg>
