<?xml version="1.0" encoding="utf-8"?>
<!-- Generator: Adobe Illustrator 19.2.1, SVG Export Plug-In . SVG Version: 6.00 Build 0)  -->
<svg version="1.1" id="Ebene_1" xmlns="http://www.w3.org/2000/svg" xmlns:xlink="http://www.w3.org/1999/xlink" x="0px" y="0px"
	 viewBox="0 0 100 100" style="enable-background:new 0 0 100 100;" xml:space="preserve">
<style type="text/css">
	.st0{fill:#FFFFFF;}
	.st1{fill:url(#SVGID_1_);}
	.st2{fill:#4B4B4B;}
	.st3{fill:url(#SVGID_2_);}
</style>
<g>
	<path class="st0" d="M49.4,86.6c-0.3,0-0.7-0.1-0.9-0.3l-3-1.8c-0.4-0.3-0.2-0.3-0.1-0.4c0.6-0.2,0.7-0.3,1.4-0.6
		c0.1,0,0.2,0,0.2,0l2.3,1.4c0.1,0,0.2,0,0.3,0l9-5.2c0.1,0,0.1-0.1,0.1-0.2V69.1c0-0.1-0.1-0.2-0.1-0.2l-9-5.2c-0.1,0-0.2,0-0.3,0
		l-9,5.2c-0.1,0.1-0.1,0.1-0.1,0.2v10.4c0,0.1,0.1,0.2,0.1,0.2l2.5,1.4c1.3,0.7,2.2-0.1,2.2-0.9V70c0-0.1,0.1-0.3,0.3-0.3h1.1
		c0.1,0,0.3,0.1,0.3,0.3v10.3c0,1.8-1,2.8-2.7,2.8c-0.5,0-0.9,0-2.1-0.6l-2.4-1.4c-0.6-0.3-0.9-1-0.9-1.6V69.1
		c0-0.7,0.4-1.3,0.9-1.6l9-5.2c0.6-0.3,1.3-0.3,1.9,0l9,5.2c0.6,0.3,0.9,1,0.9,1.6v10.4c0,0.7-0.4,1.3-0.9,1.6l-9,5.2
		C50.1,86.5,49.8,86.6,49.4,86.6"/>
	<path class="st0" d="M52.2,79.4c-4,0-4.8-1.8-4.8-3.3c0-0.1,0.1-0.3,0.3-0.3h1.2c0.1,0,0.2,0.1,0.3,0.2c0.2,1.2,0.7,1.8,3.1,1.8
		c1.9,0,2.7-0.4,2.7-1.4c0-0.6-0.2-1-3.2-1.3c-2.5-0.2-4-0.8-4-2.8c0-1.8,1.5-2.9,4.1-2.9c2.9,0,4.3,1,4.5,3.2c0,0.1,0,0.1-0.1,0.2
		c0,0.1-0.1,0.1-0.2,0.1h-1.2c-0.1,0-0.2-0.1-0.3-0.2c-0.3-1.3-1-1.7-2.8-1.7c-2.1,0-2.3,0.7-2.3,1.3c0,0.7,0.3,0.8,3.1,1.2
		c2.8,0.4,4.1,0.9,4.1,2.8C56.7,78.3,55.1,79.4,52.2,79.4"/>
	<path class="st0" d="M65.2,68.5c0,1-0.8,1.7-1.7,1.7c-1,0-1.7-0.8-1.7-1.7c0-1,0.8-1.7,1.7-1.7C64.4,66.8,65.2,67.5,65.2,68.5
		 M62,68.5c0,0.8,0.7,1.5,1.5,1.5c0.8,0,1.5-0.7,1.5-1.5c0-0.8-0.7-1.5-1.5-1.5C62.7,67.1,62,67.7,62,68.5 M62.8,67.5h0.7
		c0.2,0,0.7,0,0.7,0.5c0,0.4-0.2,0.4-0.4,0.5c0.3,0,0.3,0.2,0.3,0.4c0,0.2,0,0.4,0.1,0.5h-0.4c0-0.1-0.1-0.6-0.1-0.6
		c0-0.1-0.1-0.2-0.2-0.2h-0.3v0.8h-0.4C62.8,69.5,62.8,67.5,62.8,67.5z M63.2,68.4h0.3c0.2,0,0.3-0.2,0.3-0.3c0-0.3-0.2-0.3-0.3-0.3
		h-0.3V68.4z"/>
	<path class="st0" d="M21.5,45.8c0-0.4-0.2-0.8-0.6-1l-9.6-5.5c-0.2-0.1-0.3-0.1-0.5-0.2h-0.1c-0.2,0-0.4,0.1-0.5,0.2l-9.6,5.5
		C0.2,45,0,45.4,0,45.8l0,14.8c0,0.2,0.1,0.4,0.3,0.5c0.2,0.1,0.4,0.1,0.6,0l5.7-3.3c0.4-0.2,0.6-0.6,0.6-1V50c0-0.4,0.2-0.8,0.6-1
		l2.4-1.4c0.2-0.1,0.4-0.2,0.6-0.2c0.2,0,0.4,0.1,0.6,0.2l2.4,1.4c0.4,0.2,0.6,0.6,0.6,1v6.9c0,0.4,0.2,0.8,0.6,1l5.7,3.3
		c0.2,0.1,0.4,0.1,0.6,0c0.2-0.1,0.3-0.3,0.3-0.5L21.5,45.8z"/>
	<path class="st0" d="M67.5,25.5c-0.2-0.1-0.4-0.1-0.6,0c-0.2,0.1-0.3,0.3-0.3,0.5v14.7c0,0.1-0.1,0.3-0.2,0.3
		c-0.1,0.1-0.3,0.1-0.4,0l-2.4-1.4c-0.4-0.2-0.8-0.2-1.2,0l-9.6,5.5c-0.4,0.2-0.6,0.6-0.6,1v11.1c0,0.4,0.2,0.8,0.6,1l9.6,5.5
		c0.4,0.2,0.8,0.2,1.2,0l9.6-5.5c0.4-0.2,0.6-0.6,0.6-1V29.6c0-0.4-0.2-0.8-0.6-1L67.5,25.5z M66.6,53.6c0,0.1-0.1,0.2-0.1,0.2
		l-3.3,1.9c-0.1,0.1-0.2,0.1-0.3,0l-3.3-1.9c-0.1-0.1-0.1-0.1-0.1-0.2v-3.8c0-0.1,0.1-0.2,0.1-0.2l3.3-1.9c0.1-0.1,0.2-0.1,0.3,0
		l3.3,1.9c0.1,0.1,0.1,0.1,0.1,0.2L66.6,53.6L66.6,53.6z"/>
	<path class="st0" d="M99.4,49.7c0.4-0.2,0.6-0.6,0.6-1V46c0-0.4-0.2-0.8-0.6-1l-9.5-5.5c-0.4-0.2-0.8-0.2-1.2,0L79.2,45
		c-0.4,0.2-0.6,0.6-0.6,1v11.1c0,0.4,0.2,0.8,0.6,1l9.5,5.4c0.4,0.2,0.8,0.2,1.1,0l5.8-3.2c0.2-0.1,0.3-0.3,0.3-0.5
		s-0.1-0.4-0.3-0.5L86,53.7c-0.2-0.1-0.3-0.3-0.3-0.5v-3.5c0-0.2,0.1-0.4,0.3-0.5l3-1.7c0.2-0.1,0.4-0.1,0.6,0l3,1.7
		c0.2,0.1,0.3,0.3,0.3,0.5v2.7c0,0.2,0.1,0.4,0.3,0.5c0.2,0.1,0.4,0.1,0.6,0L99.4,49.7z"/>
	<path class="st0" d="M89.2,49.2c0.1,0,0.2,0,0.2,0l1.8,1.1c0.1,0,0.1,0.1,0.1,0.2v2.1c0,0.1,0,0.2-0.1,0.2l-1.8,1.1
		c-0.1,0-0.2,0-0.2,0l-1.8-1.1c-0.1,0-0.1-0.1-0.1-0.2v-2.1c0-0.1,0-0.2,0.1-0.2L89.2,49.2z"/>
	<g>
		
			<linearGradient id="SVGID_1_" gradientUnits="userSpaceOnUse" x1="-326.3011" y1="-268.9912" x2="-326.0751" y2="-268.9912" gradientTransform="matrix(94.2039 0 0 94.2039 30765.0371 25391.5703)">
			<stop  offset="0" style="stop-color:#FFFFFF"/>
			<stop  offset="5.300000e-03" style="stop-color:#FFFFFF"/>
			<stop  offset="0.1054" style="stop-color:#F4F4F5"/>
			<stop  offset="0.4925" style="stop-color:#CFD0D1"/>
			<stop  offset="0.8043" style="stop-color:#B7B9BB"/>
			<stop  offset="1" style="stop-color:#AFB1B3"/>
		</linearGradient>
		<path class="st1" d="M46.9,45.1l-9.5-5.5c-0.2-0.1-0.4-0.2-0.6-0.2c-0.2,0-0.4,0.1-0.6,0.2l-9.5,5.5c-0.4,0.2-0.6,0.6-0.6,1v11
			c0,0.4,0.2,0.8,0.6,1l9.5,5.5c0.4,0.2,0.8,0.2,1.1,0l9.5-5.5c0.4-0.2,0.6-0.6,0.6-1v-11C47.5,45.7,47.3,45.3,46.9,45.1z"/>
		<path class="st2" d="M37.4,39.6c-0.1-0.1-0.2-0.1-0.3-0.1L26.4,57.8c0.1,0.1,0.2,0.2,0.3,0.3l9.8,5.6h0.6l10-18.3
			c-0.1-0.1-0.2-0.2-0.3-0.3L37.4,39.6z"/>
		
			<linearGradient id="SVGID_2_" gradientUnits="userSpaceOnUse" x1="-326.3466" y1="-268.9926" x2="-326.1205" y2="-268.9926" gradientTransform="matrix(97.1778 0 0 97.1778 31739.8398 26191.6465)">
			<stop  offset="0" style="stop-color:#AFB1B3"/>
			<stop  offset="0.1957" style="stop-color:#B7B9BB"/>
			<stop  offset="0.5075" style="stop-color:#CFD0D1"/>
			<stop  offset="0.8946" style="stop-color:#F4F4F5"/>
			<stop  offset="0.9947" style="stop-color:#FFFFFF"/>
			<stop  offset="1" style="stop-color:#FFFFFF"/>
		</linearGradient>
		<path class="st3" d="M36.8,39.4C36.8,39.4,36.8,39.4,36.8,39.4c-0.2,0-0.4,0.1-0.6,0.2L26.9,45l10.2,18.6c0.1,0,0.2-0.1,0.3-0.1
			l9.5-5.5c0.4-0.2,0.5-0.6,0.5-1v0L37.1,39.5C37,39.4,36.9,39.4,36.8,39.4z"/>
	</g>
</g>
</svg>
