<?xml version="1.0" encoding="utf-8"?>
<!-- Generator: Adobe Illustrator 15.0.0, SVG Export Plug-In . SVG Version: 6.00 Build 0)  -->
<!DOCTYPE svg PUBLIC "-//W3C//DTD SVG 1.1//EN" "http://www.w3.org/Graphics/SVG/1.1/DTD/svg11.dtd">
<svg version="1.1" id="Ebene_1" xmlns="http://www.w3.org/2000/svg" xmlns:xlink="http://www.w3.org/1999/xlink" x="0px" y="0px"
	 width="60px" height="60px" viewBox="0 0 60 60" enable-background="new 0 0 60 60" xml:space="preserve">
<path fill="#FFFFFF" d="M53.859,17.765c0.023,0.524,0.034,1.054,0.034,1.591c0,16.27-12.383,35.025-35.022,35.025
	c-6.954,0-13.423-2.037-18.871-5.529c0.962,0.113,1.94,0.171,2.934,0.171c5.77,0,11.075-1.969,15.288-5.27
	c-5.388-0.102-9.936-3.66-11.498-8.547c0.751,0.14,1.523,0.218,2.316,0.218c1.121,0,2.214-0.149,3.243-0.432
	C6.65,33.859,2.404,28.886,2.404,22.92c0-0.053,0-0.104,0.003-0.156c1.66,0.922,3.56,1.476,5.576,1.54
	c-3.302-2.203-5.474-5.97-5.474-10.241c0-2.257,0.605-4.374,1.666-6.189C10.25,15.317,19.32,20.222,29.55,20.736
	c-0.212-0.904-0.317-1.844-0.317-2.809c0-6.799,5.509-12.309,12.307-12.309c3.543,0,6.742,1.493,8.985,3.89
	c2.805-0.556,5.439-1.581,7.822-2.991c-0.92,2.874-2.873,5.29-5.415,6.813c2.487-0.296,4.862-0.961,7.068-1.938
	C58.353,13.86,56.265,16.029,53.859,17.765z"/>
</svg>
