<?xml version="1.0" encoding="utf-8"?>
<!-- Generator: Adobe Illustrator 15.0.0, SVG Export Plug-In . SVG Version: 6.00 Build 0)  -->
<!DOCTYPE svg PUBLIC "-//W3C//DTD SVG 1.1//EN" "http://www.w3.org/Graphics/SVG/1.1/DTD/svg11.dtd">
<svg version="1.1" id="Ebene_1" xmlns="http://www.w3.org/2000/svg" xmlns:xlink="http://www.w3.org/1999/xlink" x="0px" y="0px"
	 width="60px" height="60px" viewBox="0 0 60 60" enable-background="new 0 0 60 60" xml:space="preserve">
<g>
	<path fill="#FFFFFF" d="M59.974,20.521c-0.006-0.037-0.011-0.074-0.021-0.112c-0.014-0.07-0.027-0.144-0.044-0.217
		c-0.012-0.04-0.027-0.082-0.04-0.124c-0.022-0.064-0.035-0.126-0.066-0.188c-0.016-0.045-0.034-0.082-0.057-0.127
		c-0.029-0.06-0.056-0.116-0.089-0.169c-0.024-0.039-0.048-0.081-0.074-0.12c-0.029-0.056-0.068-0.107-0.108-0.156
		c-0.027-0.036-0.058-0.073-0.091-0.11c-0.037-0.05-0.085-0.093-0.127-0.138c-0.033-0.036-0.066-0.074-0.104-0.104
		c-0.046-0.042-0.093-0.083-0.146-0.125c-0.036-0.028-0.079-0.059-0.118-0.087c-0.017-0.01-0.028-0.022-0.041-0.033L31.429,0.435
		c-0.869-0.579-1.994-0.579-2.863,0L1.15,18.71c-0.013,0.011-0.031,0.022-0.044,0.033c-0.041,0.028-0.08,0.059-0.117,0.087
		c-0.05,0.041-0.1,0.083-0.147,0.125c-0.034,0.031-0.067,0.067-0.103,0.104c-0.043,0.042-0.088,0.088-0.129,0.138
		c-0.027,0.037-0.059,0.074-0.085,0.11c-0.041,0.049-0.077,0.103-0.108,0.156c-0.027,0.037-0.053,0.08-0.076,0.12
		c-0.03,0.056-0.059,0.109-0.086,0.169c-0.018,0.045-0.041,0.084-0.059,0.127c-0.029,0.06-0.046,0.124-0.064,0.188
		c-0.018,0.041-0.031,0.083-0.041,0.124c-0.021,0.071-0.029,0.145-0.047,0.217c-0.006,0.039-0.014,0.075-0.021,0.112
		C0.011,20.632,0,20.744,0,20.858v18.276c0,0.114,0.011,0.228,0.023,0.342c0.007,0.032,0.015,0.073,0.021,0.109
		c0.02,0.073,0.027,0.146,0.047,0.217c0.013,0.044,0.025,0.086,0.041,0.123c0.019,0.067,0.035,0.131,0.064,0.192
		c0.018,0.04,0.037,0.082,0.059,0.121c0.029,0.059,0.056,0.117,0.086,0.175c0.026,0.037,0.049,0.074,0.076,0.116
		c0.031,0.054,0.067,0.104,0.108,0.156c0.026,0.038,0.058,0.077,0.085,0.11c0.041,0.049,0.086,0.092,0.129,0.139
		c0.035,0.033,0.068,0.071,0.103,0.1c0.046,0.041,0.097,0.085,0.147,0.127c0.037,0.031,0.076,0.055,0.117,0.088
		c0.014,0.007,0.031,0.021,0.044,0.029l27.415,18.285c0.436,0.283,0.936,0.43,1.432,0.43c0.499,0,1.001-0.146,1.432-0.43
		l27.42-18.285c0.016-0.006,0.027-0.022,0.041-0.029c0.039-0.033,0.077-0.06,0.118-0.088c0.047-0.042,0.095-0.086,0.146-0.127
		c0.037-0.032,0.07-0.067,0.104-0.1c0.042-0.043,0.09-0.09,0.127-0.139c0.03-0.033,0.063-0.072,0.091-0.11
		c0.04-0.053,0.079-0.102,0.108-0.156c0.026-0.037,0.05-0.079,0.074-0.116c0.031-0.058,0.062-0.116,0.089-0.175
		c0.02-0.04,0.037-0.082,0.057-0.121c0.031-0.066,0.044-0.125,0.066-0.192c0.015-0.037,0.032-0.079,0.04-0.123
		c0.02-0.071,0.03-0.144,0.044-0.217c0.01-0.036,0.015-0.077,0.021-0.109C59.99,39.362,60,39.255,60,39.134V20.859
		C59.996,20.744,59.99,20.635,59.974,20.521 M32.578,7.395l20.203,13.464l-9.024,6.036l-11.179-7.478V7.395z M27.421,7.395v12.024
		l-11.177,7.479l-9.023-6.037L27.421,7.395z M5.159,25.683l6.448,4.316l-6.448,4.315V25.683z M27.421,52.602l-20.2-13.467
		l9.023-6.036l11.177,7.474V52.602z M30.001,36.099l-9.121-6.1l9.121-6.102l9.119,6.102L30.001,36.099z M32.578,52.602V40.573
		l11.179-7.474l9.024,6.036L32.578,52.602z M54.84,34.314l-6.449-4.315l6.449-4.316V34.314z"/>
</g>
</svg>
