<?xml version="1.0" encoding="utf-8"?>
<!-- Generator: Adobe Illustrator 15.0.0, SVG Export Plug-In . SVG Version: 6.00 Build 0)  -->
<!DOCTYPE svg PUBLIC "-//W3C//DTD SVG 1.1//EN" "http://www.w3.org/Graphics/SVG/1.1/DTD/svg11.dtd">
<svg version="1.1" id="Ebene_1" xmlns="http://www.w3.org/2000/svg" xmlns:xlink="http://www.w3.org/1999/xlink" x="0px" y="0px"
	 width="60px" height="60px" viewBox="0 0 60 60" enable-background="new 0 0 60 60" xml:space="preserve">
<g>
	<path fill="#FFFFFF" d="M22.394,37.743h-2.275v-1.316c-0.861,0.988-1.594,1.487-2.391,1.487c-0.699,0-1.186-0.33-1.428-0.926
		c-0.147-0.361-0.253-0.928-0.253-1.759v-9.581h2.275v8.981v0.839c0.053,0.335,0.196,0.459,0.485,0.459
		c0.435,0,0.829-0.38,1.311-1.059v-9.221h2.275V37.743z"/>
	<path fill="#FFFFFF" d="M14.37,29.6c0-1.292-0.259-2.263-0.719-2.874c-0.605-0.828-1.557-1.167-2.515-1.167
		c-1.084,0-1.91,0.338-2.515,1.167c-0.466,0.611-0.716,1.591-0.716,2.884l-0.003,4.301c0,1.285,0.223,2.173,0.688,2.778
		c0.607,0.825,1.589,1.262,2.546,1.262c0.958,0,1.957-0.437,2.563-1.262c0.459-0.605,0.67-1.493,0.67-2.778V29.6z M12.095,34.15
		c0.12,1.198-0.252,1.792-0.958,1.792c-0.707,0-1.077-0.594-0.957-1.792v-4.789c-0.12-1.199,0.25-1.759,0.957-1.759
		c0.706,0,1.079,0.561,0.96,1.759L12.095,34.15z"/>
	<path fill="#FFFFFF" d="M5.389,31.156v6.586H2.993v-6.586c0,0-2.481-8.075-2.993-9.58h2.515l1.681,6.308l1.673-6.308h2.515
		L5.389,31.156z"/>
	<path fill="#FFFFFF" d="M45.797,27.571c-0.357,0-0.766,0.189-1.129,0.546l-0.002,7.262c0.362,0.363,0.773,0.547,1.131,0.547
		c0.624,0,0.907-0.46,0.907-1.657v-5.15C46.704,27.923,46.421,27.571,45.797,27.571"/>
	<path fill="#FFFFFF" d="M54.728,29.011c0-1.107-0.285-1.439-1.004-1.439c-0.726,0-1.031,0.306-1.031,1.424v1.325l2.035-0.002
		V29.011z"/>
	<path fill="#FFFFFF" d="M59.643,22.882c0,0-0.349-2.453-1.422-3.534c-1.359-1.417-2.884-1.425-3.582-1.508
		c-5.004-0.36-12.512-0.36-12.512-0.36h-0.015c0,0-7.506,0-12.511,0.36c-0.699,0.083-2.223,0.09-3.583,1.508
		c-1.072,1.081-1.421,3.534-1.421,3.534s-0.357,2.88-0.357,5.761v2.701c0,2.881,0.357,5.762,0.357,5.762s0.349,2.452,1.421,3.533
		c1.36,1.417,3.147,1.372,3.943,1.521c2.86,0.273,12.158,0.358,12.158,0.358s7.515-0.011,12.519-0.371
		c0.698-0.083,2.223-0.091,3.582-1.508c1.073-1.081,1.422-3.533,1.422-3.533S60,34.225,60,31.344v-2.701
		C60,25.763,59.643,22.882,59.643,22.882 M32.094,37.743h-2.395V23.971h-2.515v-2.272l7.544-0.003v2.275h-2.635V37.743z
		 M40.717,37.743h-2.275v-1.316c-0.863,0.988-1.594,1.487-2.391,1.487c-0.7,0-1.186-0.33-1.429-0.926
		c-0.147-0.361-0.253-0.928-0.253-1.759v-9.461h2.275v8.861v0.839c0.054,0.335,0.196,0.459,0.485,0.459
		c0.436,0,0.83-0.38,1.312-1.059v-9.101h2.275V37.743z M48.979,34.151c0,1.105-0.095,1.886-0.239,2.394
		c-0.289,0.89-0.921,1.353-1.783,1.353c-0.771,0-1.561-0.464-2.285-1.361l-0.004,1.206h-2.155V21.696h2.155l-0.002,5.231
		c0.7-0.861,1.493-1.352,2.291-1.352c0.862,0,1.443,0.499,1.731,1.395c0.146,0.481,0.291,1.257,0.291,2.391V34.151z M53.743,35.927
		c0.533,0,0.845-0.291,0.969-0.87c0.021-0.119,0.016-0.635,0.016-1.505h2.275v0.339c0,0.699-0.058,1.194-0.076,1.411
		c-0.074,0.48-0.244,0.915-0.508,1.298c-0.6,0.87-1.489,1.298-2.622,1.298c-1.134,0-1.998-0.408-2.624-1.226
		c-0.461-0.599-0.756-1.489-0.756-2.76v-4.192c0-1.279,0.268-2.268,0.729-2.873c0.628-0.819,1.49-1.253,2.598-1.253
		c1.088,0,1.951,0.434,2.559,1.253c0.453,0.605,0.705,1.541,0.705,2.82v2.448h-4.314v2.15C52.685,35.37,52.998,35.927,53.743,35.927
		"/>
</g>
</svg>
