<?xml version="1.0" encoding="utf-8"?>
<!-- Generator: Adobe Illustrator 19.2.1, SVG Export Plug-In . SVG Version: 6.00 Build 0)  -->
<svg version="1.1" id="Layer_1" xmlns="http://www.w3.org/2000/svg" xmlns:xlink="http://www.w3.org/1999/xlink" x="0px" y="0px"
	 viewBox="0 0 200 103" style="enable-background:new 0 0 200 103;" xml:space="preserve">
<style type="text/css">
	.st0{fill:#FFFFFF;}
</style>
<g>
	<rect x="83.8" y="0" class="st0" width="19" height="70"/>
	<rect x="181" y="0" class="st0" width="19" height="70"/>
	<path class="st0" d="M129.3,53.2h25.1V16.8h-44.2V0l56.6,0c3.7,0,6.7,3,6.7,6.7l0,56.7c0,3.7-3,6.7-6.7,6.7h-56.5V26.4h19V53.2z"/>
	<path class="st0" d="M69.6,0L57.3,0H0v70h19V16.8h9.6V70h19V16.8h9.6V70h19l0-63.3C76.3,3,73.3,0,69.6,0z"/>
	<rect y="77.2" class="st0" width="200" height="25.2"/>
</g>
</svg>
