<?xml version="1.0" encoding="utf-8"?>
<!-- Generator: Adobe Illustrator 15.0.0, SVG Export Plug-In . SVG Version: 6.00 Build 0)  -->
<!DOCTYPE svg PUBLIC "-//W3C//DTD SVG 1.1//EN" "http://www.w3.org/Graphics/SVG/1.1/DTD/svg11.dtd">
<svg version="1.1" id="Ebene_1" xmlns="http://www.w3.org/2000/svg" xmlns:xlink="http://www.w3.org/1999/xlink" x="0px" y="0px"
	 width="200px" height="102px" viewBox="0 0 200 102" enable-background="new 0 0 200 102" xml:space="preserve">
<g>
	<g>
		<rect x="153.623" y="55.371" fill="#FD0000" width="11.594" height="11.657"/>
		<rect x="165.217" y="55.371" fill="#FD7300" width="11.595" height="11.657"/>
		<rect x="176.812" y="55.371" fill="#FDA800" width="11.595" height="11.657"/>
		<rect x="188.406" y="55.371" fill="#FDD100" width="11.594" height="11.657"/>
		<rect x="188.406" y="67.028" fill="#FDFD00" width="11.594" height="11.657"/>
		<rect x="188.406" y="78.686" fill="#9DEC00" width="11.594" height="11.657"/>
		<rect x="188.406" y="90.343" fill="#00CA00" width="11.594" height="11.657"/>
		<rect x="176.812" y="90.343" fill="#009797" width="11.595" height="11.657"/>
		<rect x="165.217" y="90.343" fill="#113FA9" width="11.595" height="11.657"/>
		<rect x="153.623" y="90.343" fill="#3813AD" width="11.594" height="11.657"/>
		<rect x="153.623" y="78.686" fill="#A0038B" width="11.594" height="11.657"/>
		<rect x="153.623" y="67.028" fill="#CB0073" width="11.594" height="11.657"/>
	</g>
	<g>
		<path fill="#FFFFFF" d="M197.102,8.743V5.828h-2.898V2.914h-2.898V0h-37.682v46.629h37.682v-2.915h2.898V40.8h2.898v-2.914H200
			V8.743H197.102z M185.508,32.058v2.914h-20.291V11.657h20.291v2.914h2.898v17.486H185.508z"/>
		<path fill="#FFFFFF" d="M144.928,5.828h-2.898V2.914h-2.898V0h-31.885v46.629h11.595v-8.743h11.594V40.8h2.899v2.914h2.898v2.915
			h11.594v-8.743h-2.898v-2.914h-2.898v-2.914h2.898v-2.915h2.898V8.743h-2.898V5.828z M133.334,23.314v2.914h-14.493V11.657h14.493
			v2.914h2.898v8.743H133.334z"/>
		<polygon fill="#FFFFFF" points="28.985,0 28.985,23.314 26.087,23.314 26.087,20.4 23.188,20.4 23.188,17.485 20.29,17.485 
			20.29,14.571 17.391,14.571 17.391,11.657 14.493,11.657 14.493,8.743 11.594,8.743 11.594,0 0,0 0,46.629 11.594,46.629 
			11.594,23.314 14.493,23.314 14.493,26.229 17.391,26.229 17.391,29.143 20.29,29.143 20.29,32.058 23.188,32.058 23.188,34.972 
			26.087,34.972 26.087,37.886 28.985,37.886 28.985,46.629 40.58,46.629 40.58,0 		"/>
		<polygon fill="#FFFFFF" points="52.174,0 52.174,2.914 49.275,2.914 49.275,5.828 46.377,5.828 46.377,40.8 49.275,40.8 
			49.275,43.714 52.174,43.714 52.174,46.629 101.449,46.629 101.449,34.972 57.971,34.972 57.971,29.143 89.855,29.143 
			89.855,17.485 57.971,17.485 57.971,11.657 101.449,11.657 101.449,0 		"/>
	</g>
	<g>
		<path fill="#FFFFFF" d="M37.681,61.2h-2.898v-2.914h-2.898v-2.915H0V102h31.884v-2.914h2.898v-2.914h2.898v-2.915h2.898V64.114
			h-2.898V61.2z M26.087,87.429v2.914H11.594V67.028h14.493v2.915h2.898v17.486H26.087z"/>
		<polygon fill="#FFFFFF" points="115.941,55.371 115.941,58.286 113.043,58.286 113.043,61.2 110.145,61.2 110.145,96.172 
			113.043,96.172 113.043,99.086 115.941,99.086 115.941,102 147.826,102 147.826,90.343 124.638,90.343 124.638,87.429 
			121.739,87.429 121.739,69.943 124.638,69.943 124.638,67.028 147.826,67.028 147.826,55.371 		"/>
		<rect x="46.377" y="55.371" fill="#FFFFFF" width="11.594" height="46.629"/>
		<polygon fill="#FFFFFF" points="101.449,75.771 98.551,75.771 98.551,72.857 75.362,72.857 75.362,67.028 101.449,67.028 
			101.449,55.371 69.565,55.371 69.565,58.286 66.667,58.286 66.667,61.2 63.768,61.2 63.768,78.686 66.667,78.686 66.667,81.6 
			69.565,81.6 69.565,84.515 92.753,84.515 92.753,90.343 63.768,90.343 63.768,102 98.551,102 98.551,99.086 101.449,99.086 
			101.449,96.172 104.348,96.172 104.348,78.686 101.449,78.686 		"/>
	</g>
</g>
</svg>
