<?xml version="1.0" encoding="utf-8"?>
<!-- Generator: Adobe Illustrator 15.0.0, SVG Export Plug-In . SVG Version: 6.00 Build 0)  -->
<!DOCTYPE svg PUBLIC "-//W3C//DTD SVG 1.1//EN" "http://www.w3.org/Graphics/SVG/1.1/DTD/svg11.dtd">
<svg version="1.1" id="Ebene_1" xmlns="http://www.w3.org/2000/svg" xmlns:xlink="http://www.w3.org/1999/xlink" x="0px" y="0px"
	 width="200px" height="100px" viewBox="0 0 200 100" enable-background="new 0 0 200 100" xml:space="preserve">
<g>
	<g>
		<rect id="P-12_20_" x="156.521" y="63.043" fill="#CB0073" width="10.873" height="10.868"/>
		<rect id="P-11_20_" x="156.521" y="73.914" fill="#A0038B" width="10.873" height="10.869"/>
		<rect id="P-10_20_" x="156.521" y="84.782" fill="#3813AD" width="10.873" height="10.87"/>
		<rect id="P-9_20_" x="167.395" y="84.782" fill="#113FA9" width="10.867" height="10.87"/>
		<rect id="P-8_20_" x="178.26" y="84.782" fill="#009797" width="10.871" height="10.87"/>
		<rect id="P-7_20_" x="189.131" y="84.782" fill="#00CA00" width="10.869" height="10.87"/>
		<rect id="P-6_20_" x="189.131" y="73.914" fill="#9DEC00" width="10.869" height="10.869"/>
		<rect id="P-5_20_" x="189.131" y="63.043" fill="#FDFD00" width="10.869" height="10.868"/>
		<rect id="P-4_20_" x="189.131" y="52.174" fill="#FDD100" width="10.869" height="10.87"/>
		<rect id="P-3_20_" x="178.26" y="52.174" fill="#FDA800" width="10.871" height="10.87"/>
		<rect id="P-2_20_" x="167.395" y="52.174" fill="#FD7300" width="10.867" height="10.87"/>
		<rect id="P-1_20_" x="156.521" y="52.174" fill="#FD0000" width="10.873" height="10.87"/>
	</g>
	<g>
		<polygon fill="#FFFFFF" points="143.479,73.913 143.479,69.565 139.131,69.565 134.781,69.565 130.434,69.565 126.086,69.565 
			121.738,69.565 117.391,69.565 113.043,69.565 113.043,65.217 113.043,60.87 117.391,60.87 121.738,60.87 126.086,60.87 
			130.434,60.87 134.781,60.87 139.131,60.87 143.479,60.87 143.479,56.521 143.479,52.174 139.131,52.174 134.781,52.174 
			130.434,52.174 126.086,52.174 121.738,52.174 117.391,52.174 113.043,52.174 108.695,52.174 108.695,56.521 104.348,56.521 
			104.348,60.87 104.348,65.217 104.348,69.565 104.348,73.913 108.695,73.913 108.695,78.261 113.043,78.261 117.391,78.261 
			121.738,78.261 126.086,78.261 130.434,78.261 134.781,78.261 139.131,78.261 139.131,82.608 139.131,86.957 134.781,86.957 
			130.434,86.957 126.086,86.957 121.738,86.957 117.391,86.957 113.043,86.957 108.695,86.957 104.348,86.957 104.348,91.304 
			104.348,95.652 108.695,95.652 113.043,95.652 117.391,95.652 121.738,95.652 126.086,95.652 130.434,95.652 134.781,95.652 
			139.131,95.652 143.479,95.652 143.479,91.304 147.826,91.304 147.826,86.957 147.826,82.608 147.826,78.261 147.826,73.913 		"/>
		<polygon fill="#FFFFFF" points="86.957,52.174 82.608,52.174 78.261,52.174 73.913,52.174 69.565,52.174 65.217,52.174 
			60.87,52.174 56.521,52.174 52.174,52.174 52.174,56.521 52.174,60.87 56.521,60.87 60.87,60.87 65.217,60.87 69.565,60.87 
			69.565,65.217 69.565,69.565 69.565,73.913 69.565,78.261 69.565,82.608 69.565,86.957 65.217,86.957 60.87,86.957 56.521,86.957 
			52.174,86.957 52.174,91.304 52.174,95.652 56.521,95.652 60.87,95.652 65.217,95.652 69.565,95.652 73.913,95.652 78.261,95.652 
			82.608,95.652 86.957,95.652 91.304,95.652 95.652,95.652 95.652,91.304 95.652,86.957 91.304,86.957 86.957,86.957 
			82.608,86.957 78.261,86.957 78.261,82.608 78.261,78.261 78.261,73.913 78.261,69.565 78.261,65.217 78.261,60.87 82.608,60.87 
			86.957,60.87 91.304,60.87 95.652,60.87 95.652,56.521 95.652,52.174 91.304,52.174 		"/>
		<path fill="#FFFFFF" d="M39.13,60.87h-4.348v-4.348h-4.348v-4.348h-4.348h-4.348h-4.348h-4.348H8.696H4.348H0v4.348v4.348v4.348
			v4.348v4.347v4.348v4.348v4.348v4.348v4.348h4.348h4.348h4.348h4.348h4.348h4.348h4.348h4.348h4.348h4.348v-4.348v-4.348v-4.348
			v-4.348v-4.348v-4.347v-4.348H39.13V60.87z M34.783,69.565v4.347v4.348v4.348v4.348h-4.348h-4.348h-4.348h-4.348h-4.348H8.696
			v-4.348v-4.348v-4.348v-4.347v-4.348V60.87h4.348h4.348h4.348h4.348v4.348h4.348v4.348H34.783z"/>
	</g>
	<g>
		<polygon fill="#FFFFFF" points="86.957,0 82.608,0 78.261,0 73.913,0 69.565,0 65.217,0 60.87,0 56.521,0 52.174,0 52.174,4.348 
			52.174,8.696 52.174,13.043 52.174,17.391 52.174,21.739 52.174,26.087 52.174,30.435 52.174,34.783 52.174,39.13 52.174,43.478 
			56.521,43.478 60.87,43.478 65.217,43.478 69.565,43.478 73.913,43.478 78.261,43.478 82.608,43.478 86.957,43.478 91.304,43.478 
			95.652,43.478 95.652,39.13 95.652,34.783 91.304,34.783 86.957,34.783 82.608,34.783 78.261,34.783 73.913,34.783 69.565,34.783 
			65.217,34.783 60.87,34.783 60.87,30.435 60.87,26.087 65.217,26.087 69.565,26.087 73.913,26.087 78.261,26.087 82.608,26.087 
			86.957,26.087 86.957,21.739 86.957,17.391 82.608,17.391 78.261,17.391 73.913,17.391 69.565,17.391 65.217,17.391 60.87,17.391 
			60.87,13.043 60.87,8.696 65.217,8.696 69.565,8.696 73.913,8.696 78.261,8.696 82.608,8.696 86.957,8.696 91.304,8.696 
			95.652,8.696 95.652,4.348 95.652,0 91.304,0 		"/>
		<polygon fill="#FFFFFF" points="34.783,0 34.783,4.348 34.783,8.696 34.783,13.043 34.783,17.391 34.783,21.739 34.783,26.087 
			30.435,26.087 30.435,21.739 26.087,21.739 26.087,17.391 21.739,17.391 21.739,13.043 17.391,13.043 17.391,8.696 13.043,8.696 
			13.043,4.348 8.696,4.348 8.696,0 4.348,0 0,0 0,4.348 0,8.696 0,13.043 0,17.391 0,21.739 0,26.087 0,30.435 0,34.783 0,39.13 
			0,43.478 4.348,43.478 8.696,43.478 8.696,39.13 8.696,34.783 8.696,30.435 8.696,26.087 8.696,21.739 8.696,17.391 
			13.043,17.391 13.043,21.739 17.391,21.739 17.391,26.087 21.739,26.087 21.739,30.435 26.087,30.435 26.087,34.783 
			30.435,34.783 30.435,39.13 34.783,39.13 34.783,43.478 39.13,43.478 43.478,43.478 43.478,39.13 43.478,34.783 43.478,30.435 
			43.478,26.087 43.478,21.739 43.478,17.391 43.478,13.043 43.478,8.696 43.478,4.348 43.478,0 39.13,0 		"/>
		<path fill="#FFFFFF" d="M195.65,13.043V8.696h-4.346V4.348h-4.348V0h-4.35h-4.348h-4.346h-4.35h-4.348h-4.348h-4.348v4.348v4.348
			v4.348v4.348v4.348v4.348v4.348v4.348v4.348v4.348h4.348h4.348h4.348h4.35h4.346h4.348h4.35h4.348h4.346H200V39.13v-4.348v-4.348
			v-4.348v-4.348v-4.348v-4.348H195.65z M191.305,21.739v4.348v4.348v4.348h-4.348h-4.35h-4.348h-4.346h-4.35h-4.348v-4.348v-4.348
			v-4.348v-4.348v-4.348V8.696h4.348h4.35h4.346h4.348v4.348h4.35v4.348h4.348V21.739z"/>
		<path fill="#FFFFFF" d="M143.479,0h-4.348h-4.35h-4.348h-4.348h-4.348h-4.348h-4.348h-4.348h-4.348v4.348v4.348v4.348v4.348v4.348
			v4.348v4.348v4.348v4.348v4.348h4.348h4.348V39.13v-4.348v-4.348v-4.348h4.348h4.348v4.348h4.348v4.348h4.348v4.348h4.348v4.348
			h4.35h4.348h4.348V39.13h-4.348v-4.348h-4.348v-4.348h-4.35v-4.348h4.35h4.348v-4.348h4.348v-4.348v-4.348V8.696V4.348h-4.348V0z
			 M139.131,13.043v4.348h-4.35h-4.348h-4.348h-4.348h-4.348h-4.348v-4.348V8.696h4.348h4.348h4.348h4.348h4.348h4.35V13.043z"/>
	</g>
</g>
</svg>
