<?xml version="1.0" encoding="utf-8"?>
<!-- Generator: Adobe Illustrator 19.2.1, SVG Export Plug-In . SVG Version: 6.00 Build 0)  -->
<svg version="1.1" id="Layer_1" xmlns="http://www.w3.org/2000/svg" xmlns:xlink="http://www.w3.org/1999/xlink" x="0px" y="0px"
	 viewBox="0 0 200 256" style="enable-background:new 0 0 200 256;" xml:space="preserve">
<style type="text/css">
	.st0{fill:#FFFFFF;}
</style>
<path class="st0" d="M182.8,116l-1.8-3.2c0.1-23.1-10.5-32.6-22.8-39.7c3.7-1,7.6-1.8,8.6-6.6c6.4-1.7,7.8-4.7,8.4-7.9
	c1.7-1.1,7.3-4.3,6.7-9.8c3.1-2.2,4.9-5,4-9c3.4-3.7,4.3-6.8,2.8-9.7c4.1-5.1,2.3-7.8,0.5-10.4c3-5.6,0.4-11.6-8.1-10.6
	c-3.4-5-10.7-3.9-11.9-3.9c-1.3-1.6-3-3-8.1-2.3c-3.4-3-7.1-2.5-11-1c-4.6-3.6-7.6-0.7-11.1,0.4c-5.6-1.8-6.8,0.7-9.6,1.7
	c-6.1-1.3-7.9,1.5-10.8,4.4l-3.4-0.1c-9.1,5.4-13.7,16.4-15.3,22c-1.6-5.6-6.1-16.6-15.3-22l-3.4,0.1c-2.9-2.9-4.7-5.7-10.8-4.4
	c-2.7-1-4-3.5-9.6-1.7c-2.3-0.7-4.4-2.2-6.8-2.1l0,0c-1.3,0-2.7,0.5-4.3,1.8c-3.9-1.5-7.6-2-11,1c-5.2-0.7-6.9,0.7-8.1,2.3
	C29.7,5.1,22.3,4,18.9,9c-8.5-1-11.2,5-8.1,10.6C9,22.3,7.3,24.9,11.3,30c-1.4,2.8-0.5,5.9,2.8,9.7c-0.9,4,0.9,6.8,4,9
	c-0.6,5.5,5,8.7,6.7,9.8c0.6,3.2,2,6.2,8.4,7.9c1.1,4.8,4.9,5.6,8.6,6.6C29.5,80.2,19,89.6,19,112.7l-1.8,3.2
	c-14.1,8.6-26.9,36.2-7,58.7c1.3,7,3.5,12.1,5.4,17.7c2.9,22.5,21.8,33.1,26.8,34.3c7.3,5.6,15.1,10.9,25.7,14.6
	c9.9,10.3,20.7,14.2,31.6,14.2c0.2,0,0.3,0,0.5,0c10.8,0,21.6-3.9,31.6-14.2c10.6-3.7,18.3-9,25.7-14.6c5-1.2,23.9-11.8,26.8-34.3
	c1.9-5.6,4.1-10.6,5.4-17.7C209.6,152.2,196.9,124.6,182.8,116z M170,112c-0.7,9.3-48.6-32.5-40.3-33.9
	C152.1,74.4,170.7,87.7,170,112z M117.4,14.6c0.4,2.1,0.9,3.4,1.4,3.8c2.7-2.9,4.8-5.9,8.3-8.6c0,1.6-0.8,3.4,1.2,4.7
	c1.8-2.5,4.3-4.7,7.6-6.6c-1.6,2.8-0.3,3.6,0.6,4.8c2.5-2.2,4.9-4.4,9.5-6.1c-1.3,1.6-3,3.1-1.2,4.9c2.6-1.6,5.2-3.3,11.4-4.5
	c-1.4,1.6-4.3,3.1-2.5,4.7c3.3-1.3,6.9-2.2,10.8-2.7c-1.9,1.6-3.5,3.2-1.9,4.4c3.5-1.1,8.3-2.6,13-1.3l-3,3
	c-0.3,0.4,6.9,0.3,11.7,0.4c-1.8,2.5-3.5,4.9-4.6,9.1c0.5,0.5,2.9,0.2,5.1,0c-2.3,4.9-6.3,6.2-7.2,8.3c1.4,1.1,3.4,0.8,5.5,0.1
	c-1.7,3.5-5.1,5.8-7.9,8.6c0.7,0.5,1.9,0.8,4.8,0.5c-2.5,2.7-5.6,5.2-9.2,7.5c0.6,0.8,2.9,0.7,4.9,0.8c-3.3,3.3-7.5,5-11.5,7.1
	c2,1.4,3.4,1.1,4.9,1c-2.8,2.3-7.6,3.6-12,5c0.8,1.3,1.7,1.7,3.5,2.1c-4.7,2.6-11.4,1.4-13.3,2.8c0.5,1.3,1.7,2.2,3.3,2.9
	c-7.5,0.4-28.2-0.3-32.1-16.1c7.7-8.6,21.8-18.7,46.1-31.2c-18.9,6.4-35.9,15-50.1,26.7C97.7,42.5,109.3,22.5,117.4,14.6z
	 M99.9,71.8c11.9-0.1,26.6,8.9,26.5,17.3c-0.1,7.5-10.3,13.5-26.4,13.4c-15.8-0.2-26.4-7.6-26.3-14.9C73.7,81.7,86.5,71.4,99.9,71.8
	L99.9,71.8z M39.9,65.4c1.8-0.4,2.6-0.7,3.5-2.1c-4.4-1.4-9.2-2.6-12-5c1.5,0,2.9,0.3,4.9-1c-4-2.1-8.2-3.8-11.5-7.1
	c2.1-0.1,4.3,0,4.9-0.8c-3.6-2.2-6.7-4.7-9.2-7.5c2.9,0.3,4.1,0,4.8-0.5c-2.7-2.8-6.2-5.2-7.9-8.6c2.1,0.7,4.1,1,5.5-0.1
	c-0.9-2.1-4.9-3.3-7.2-8.3c2.2,0.2,4.6,0.5,5.1,0c-1-4.2-2.8-6.6-4.6-9.1c4.8-0.1,12.1,0,11.7-0.4l-3-3c4.7-1.3,9.5,0.2,13,1.3
	c1.6-1.2,0-2.8-1.9-4.4c4,0.5,7.6,1.4,10.8,2.7c1.7-1.6-1.1-3.1-2.5-4.7c6.2,1.2,8.8,2.8,11.4,4.5c1.9-1.8,0.1-3.3-1.2-4.9
	c4.6,1.7,7,3.9,9.5,6.1c0.9-1.2,2.2-2,0.6-4.8c3.3,1.9,5.8,4.1,7.6,6.6c2-1.3,1.2-3.1,1.2-4.7c3.4,2.8,5.6,5.8,8.3,8.6
	c0.5-0.4,1-1.7,1.4-3.8c8.2,7.9,19.7,27.9,3,35.8C71.8,38.7,54.8,30.1,36,23.7c24.2,12.5,38.3,22.6,46,31.2
	c-4,15.9-24.6,16.6-32.1,16.1c1.5-0.7,2.8-1.6,3.3-2.9C51.3,66.8,44.6,68,39.9,65.4z M67.7,77.4L67.7,77.4
	c8.3,1.4-39.6,43.2-40.3,33.9C26.6,87,45.3,73.7,67.7,77.4z M17.5,170.5c-11.6-9.4-15.4-36.7,6.2-49.1C36.6,118,28,175.2,17.5,170.5
	z M62.8,219.6c-6.6,4-22.5,2.3-33.8-13.9c-7.6-13.6-6.7-27.5-1.3-31.6c8-4.9,20.4,1.7,29.9,12.8h0C65.9,196.8,69.7,214.4,62.8,219.6
	z M49.9,159.9c-12-7.9-14.2-25.8-4.8-39.9c9.4-14.2,26.7-19.3,38.7-11.4c12,7.9,14.2,25.8,4.8,39.9
	C79.3,162.7,61.9,167.8,49.9,159.9z M99.9,247.4c-14.4,0.6-28.6-11.8-28.4-16.1c-0.2-6.3,17.6-11.3,29.2-11v0
	c11.7-0.5,27.3,3.8,27.4,9.4C128.3,235.3,113.9,247.7,99.9,247.4z M129.6,185.1c0.1,14.8-12.9,26.8-28.9,26.9
	c-16,0.1-29.1-11.8-29.2-26.6c0-0.1,0-0.2,0-0.3c-0.1-14.8,12.9-26.8,28.9-26.9s29.1,11.8,29.2,26.6
	C129.6,184.9,129.6,185,129.6,185.1z M111.4,147.1c-9.4-14.2-7.2-32,4.8-39.9c12-7.9,29.4-2.8,38.7,11.4c9.4,14.2,7.2,32-4.8,39.9
	C138.1,166.3,120.8,161.2,111.4,147.1z M170.2,206.4c-12.4,17.2-29.3,17.9-35.5,13.1c-6.6-6.2-1.6-25.4,7.4-35.9l0,0
	c10.3-11.6,21.3-19.2,28.9-13.3C176.2,175.5,179.3,194.8,170.2,206.4z M180,169.8c-10.6,4.7-19.2-52.5-6.2-49.1v0
	C195.4,133.1,191.6,160.5,180,169.8z"/>
</svg>
