<?xml version="1.0" standalone="no"?>
<!DOCTYPE svg PUBLIC "-//W3C//DTD SVG 20010904//EN"
 "http://www.w3.org/TR/2001/REC-SVG-20010904/DTD/svg10.dtd">
<svg version="1.0" xmlns="http://www.w3.org/2000/svg"
 width="646.000000pt" height="646.000000pt" viewBox="0 0 646.000000 646.000000"
 preserveAspectRatio="xMidYMid meet">
<metadata>
Created by potrace 1.11, written by Peter Selinger 2001-2013
</metadata>
<g transform="translate(0.000000,646.000000) scale(0.100000,-0.100000)"
fill="#000000" stroke="none">
<path d="M0 3230 l0 -3230 3230 0 3230 0 0 3230 0 3230 -3230 0 -3230 0 0
-3230z m4317 1086 c8 -8 10 -2147 2 -2166 -6 -13 -136 -15 -1088 -14 -595 0
-1084 4 -1088 7 -4 5 -8 2058 -4 2159 1 9 9 18 18 20 32 6 2154 1 2160 -6z"/>
</g>
</svg>
